PathFileType	4	(X/Y/Z)	s09c0302.trc
DataRate	CameraRate	NumFrames	NumMarkers	Units	OrigDataRate	OrigDataStartFrame	OrigNumFrames
200	200	5	50	mm	200	750	2000
Frame#	Time	racr			lacr			c7			jug			rlel			rdr			llel			ldr			s2			lic			ric			lasi			rasi			rpsi			lpsi			rgt			lgt			rth1			rth2			rth3			rth4			rlfc			rmfc			rsh1			rsh2			rsh3			rsh4			rlmal			rmmal			rcal			rtoe			rmt5			lth1			lth2			lth4			lth3			llfc			lmfc			llmal			lmmal			lcal			lmt5			lsh1			lsh2			lsh3			lsh4			ltoe			SBIKE			LBIKE			RBIKE			
		X1	Y1	Z1	X2	Y2	Z2	X3	Y3	Z3	X4	Y4	Z4	X5	Y5	Z5	X6	Y6	Z6	X7	Y7	Z7	X8	Y8	Z8	X9	Y9	Z9	X10	Y10	Z10	X11	Y11	Z11	X12	Y12	Z12	X13	Y13	Z13	X14	Y14	Z14	X15	Y15	Z15	X16	Y16	Z16	X17	Y17	Z17	X18	Y18	Z18	X19	Y19	Z19	X20	Y20	Z20	X21	Y21	Z21	X22	Y22	Z22	X23	Y23	Z23	X24	Y24	Z24	X25	Y25	Z25	X26	Y26	Z26	X27	Y27	Z27	X28	Y28	Z28	X29	Y29	Z29	X30	Y30	Z30	X31	Y31	Z31	X32	Y32	Z32	X33	Y33	Z33	X34	Y34	Z34	X35	Y35	Z35	X36	Y36	Z36	X37	Y37	Z37	X38	Y38	Z38	X39	Y39	Z39	X40	Y40	Z40	X41	Y41	Z41	X42	Y42	Z42	X43	Y43	Z43	X44	Y44	Z44	X45	Y45	Z45	X46	Y46	Z46	X47	Y47	Z47	X48	Y48	Z48	X49	Y49	Z49	X50	Y50	Z50	
750	3.7500	639.464218	1390.004318	-97.112978	723.867545	1321.946261	-429.307202	665.596855	1402.153524	-269.548945	685.129026	1272.157737	-244.550576	586.476592	1122.646092	-57.427539	720.759229	893.896152	-66.378944	601.181046	1082.164884	-530.001374	713.068922	878.802287	-463.854337	217.107842	1162.708818	-333.285180	390.916942	1106.581081	-422.615715	320.136877	1196.750323	-159.430425	409.239330	1056.483561	-376.024694	358.311697	1137.319660	-149.802040	231.645590	1205.988109	-276.824007	265.329491	1181.279587	-374.868936	276.538616	1074.097850	-89.630791	325.182435	986.235691	-452.373560	398.160388	999.919377	-76.119073	483.261179	979.009658	-73.657980	543.510159	914.379315	-65.973828	501.023580	1001.799851	-96.486013	611.424167	828.522466	-84.743706	606.387268	805.768149	-185.905835	524.490558	770.341474	-65.146370	476.342742	695.135792	-78.256662	398.456727	656.228005	-81.069374	499.055688	675.434426	-103.835295	323.338172	580.805782	-84.145941	331.812582	591.808544	-160.460973	237.973627	586.267950	-121.600517	470.160642	456.762866	-131.724657	391.365681	480.622456	-65.632660	341.611569	862.508733	-443.083910	374.896758	785.520908	-429.607830	408.286276	790.725807	-411.503536	363.500146	695.867126	-420.470157	354.350682	599.096668	-402.773625	352.213208	584.969199	-304.023493	168.623618	283.571711	-412.311112	191.212533	282.863031	-344.778133	96.039874	283.216519	-376.080075	221.450492	159.789740	-430.985713	297.947833	515.156802	-427.313928	278.168298	431.363131	-419.315737	217.633932	366.539750	-418.344778	301.829029	421.267014	-388.558682	309.948541	132.066670	-361.027242	-65.829767	851.298433	-242.615870	20.995502	83.561714	-442.437220	20.904035	84.112309	-44.198214	
751	3.7550	640.025922	1389.306289	-94.919338	725.593353	1321.771952	-425.944578	667.417106	1401.966349	-266.506909	685.033201	1271.585280	-242.071789	586.299895	1122.149028	-56.471982	720.608995	893.908694	-66.241276	602.407214	1083.015707	-528.249236	713.771468	878.638688	-462.761108	217.934744	1164.665076	-334.505358	392.088639	1108.492161	-423.489767	319.930371	1198.092677	-160.204518	410.110571	1058.245147	-376.881454	358.013417	1138.435952	-150.420383	232.036793	1207.839280	-278.138143	265.649376	1182.824680	-376.303070	276.061239	1075.320620	-90.837576	325.599532	988.051507	-453.543946	396.415693	999.960202	-77.200128	481.384020	978.873230	-74.090034	541.595916	914.074503	-66.351197	499.499628	1001.807164	-96.390403	610.421794	828.615074	-85.514015	605.831673	806.060174	-186.393445	524.792719	768.191379	-65.676653	478.460127	692.048152	-78.805515	401.556820	651.222374	-81.778113	501.720805	673.239065	-104.106183	328.373789	574.120377	-84.965074	336.641468	585.264636	-161.272885	242.792481	576.396513	-122.393471	479.137168	455.073005	-131.415980	399.181958	476.580458	-65.597344	342.744484	863.995369	-444.110427	376.402665	787.257011	-430.502482	409.795322	792.510145	-412.391102	365.394302	697.490149	-421.182279	355.847324	600.329985	-403.734503	354.786278	586.000159	-305.245519	161.974844	289.544789	-412.438738	184.753519	288.326590	-344.741432	89.487738	290.340549	-375.751454	212.420391	164.811958	-431.204437	297.319454	517.675840	-428.093109	275.411687	434.453860	-419.804520	213.121717	371.360743	-418.704559	298.850952	423.731295	-389.140901	300.602648	135.787178	-361.176136	-65.780559	851.317195	-242.530740	21.000704	83.575863	-442.444850	20.909924	84.086791	-44.194398	
752	3.7600	640.619060	1388.498632	-92.629006	727.234778	1321.506729	-422.720276	669.318064	1401.484431	-263.491783	684.831182	1270.678608	-239.888124	586.102734	1121.428265	-55.393351	720.462155	893.920664	-66.163198	604.027764	1083.639874	-525.883438	714.419222	878.443697	-461.601371	218.622827	1166.749818	-335.447801	393.073211	1110.491828	-424.378651	320.093348	1199.358566	-160.848275	410.533423	1059.700710	-377.935999	357.916252	1139.340813	-151.141736	232.652785	1209.925159	-279.114661	265.862764	1184.627750	-377.418685	275.739248	1076.486529	-91.934389	325.915518	989.859211	-454.561240	394.749541	999.282392	-78.359613	479.840588	977.693663	-74.216127	539.437002	912.807596	-66.752207	498.092710	1000.939898	-96.196916	609.005084	827.765498	-85.850990	604.820054	805.659257	-186.735205	525.030591	765.650941	-65.414228	480.363297	688.093498	-79.283349	404.436847	645.439041	-82.382790	504.053531	670.318692	-104.241211	333.363374	566.302277	-85.811479	340.927857	578.199083	-162.151105	247.358765	566.288565	-123.436958	487.826409	452.841445	-130.974316	406.934580	471.743513	-65.710151	344.045637	865.522781	-444.985019	378.115026	788.974199	-431.069075	411.591737	794.623399	-413.305254	367.776383	699.235418	-421.721349	357.940411	601.766133	-404.666257	357.926434	586.959118	-306.434445	155.664595	295.968762	-412.629805	178.737989	294.379770	-344.758983	83.443739	298.043702	-375.363737	203.848801	170.450474	-431.187033	297.471552	520.315747	-428.764357	273.155112	437.830397	-420.163795	209.136166	376.484875	-418.960767	296.363514	426.477310	-389.549388	291.797514	139.599446	-360.688705	-65.719582	851.341436	-242.451246	21.000676	83.614966	-442.437376	20.900424	84.104217	-44.209575	
753	3.7650	641.305695	1387.459449	-90.421874	728.770928	1321.128694	-419.704873	671.063663	1400.828043	-260.439130	684.740302	1269.676974	-237.600901	585.831712	1120.566544	-54.301141	720.346955	893.881267	-66.024526	604.770863	1084.483810	-524.453128	715.434239	878.568651	-461.895704	219.424817	1168.733647	-336.223695	393.887863	1112.436029	-425.888573	320.412059	1200.579965	-161.163820	411.667619	1061.414503	-378.818842	357.886781	1140.108063	-151.777780	232.250469	1211.698099	-279.970892	266.297878	1186.969641	-378.132300	275.702515	1077.655312	-92.954007	326.263153	991.702107	-455.438675	393.209011	998.463153	-79.347760	477.900728	976.403795	-74.521619	536.995398	910.840147	-67.095548	496.692756	999.720346	-95.774326	607.251416	826.132053	-86.211343	603.410861	804.259406	-186.990040	524.743053	761.732845	-65.591993	482.255409	682.999014	-79.409216	407.283027	638.615384	-82.979584	505.396075	665.582326	-105.735937	338.123132	557.979136	-86.371377	345.468034	570.238079	-162.604847	252.278726	555.721671	-124.565153	495.942525	449.792514	-130.615213	414.334946	466.009671	-65.641747	345.453569	867.000135	-445.763412	380.145212	790.817012	-431.754849	413.675749	796.813911	-414.174031	370.520801	701.090781	-422.266316	360.633206	603.349780	-405.657404	361.556841	587.909280	-307.651691	149.828010	302.886622	-412.825098	173.114799	300.902241	-344.717458	77.753514	306.343895	-375.166792	195.632100	176.519315	-431.101966	298.264442	523.170728	-429.365955	271.486295	441.385282	-420.508755	205.679704	381.888787	-419.156465	294.363428	429.502373	-389.984609	282.958892	144.108882	-360.805014	-65.651447	851.375554	-242.351386	21.006706	83.683286	-442.456704	20.880734	84.094224	-44.203052	
754	3.7700	642.117688	1386.444358	-88.297310	730.217514	1320.634929	-416.742377	672.781172	1399.971029	-257.363348	684.707979	1268.503253	-235.350499	585.662574	1119.559970	-53.140547	720.287120	893.792210	-65.801759	605.600682	1085.215017	-523.197170	716.378881	878.662666	-462.188206	220.093569	1170.790975	-336.643620	394.598910	1114.179163	-426.351927	320.868961	1201.737092	-161.204812	411.748234	1062.951206	-380.088923	357.920266	1140.658034	-152.361512	233.003712	1213.479652	-280.347855	267.077537	1189.600566	-378.707299	275.648290	1078.719993	-93.963725	326.552584	993.537998	-456.209990	391.760022	997.532277	-79.936413	476.131629	974.421873	-74.517050	534.489024	908.146489	-67.418898	495.454899	997.820485	-95.330887	605.151200	823.617622	-86.773838	601.648012	802.071775	-187.118931	524.361105	757.106177	-65.499893	483.816791	677.627369	-79.610777	409.928542	631.251801	-83.128406	507.218044	660.755912	-105.935958	342.781717	549.162636	-86.585632	349.715328	561.654837	-162.951778	256.328210	543.547509	-125.053212	503.673409	445.894040	-130.191559	421.422128	459.687692	-65.361128	347.105938	868.577608	-446.432150	382.477498	792.768288	-432.263478	416.108580	798.998187	-415.047178	373.661253	702.973925	-422.681731	364.005477	604.889985	-406.466674	365.594717	588.938476	-308.821474	144.512509	310.339726	-412.971799	167.974807	307.963706	-344.653712	72.506069	315.127755	-374.997322	187.906397	183.087714	-430.997843	299.594556	526.230433	-429.912135	270.359171	445.291529	-420.961126	202.698096	387.889065	-419.381112	292.811824	432.776931	-390.226332	274.411911	149.584025	-361.664244	-65.563866	851.393991	-242.274195	21.014057	83.703113	-442.476523	20.896041	84.093186	-44.196879	
